<svg width="48" height="49" viewBox="0 0 48 49" fill="none" xmlns="http://www.w3.org/2000/svg">
<path d="M47.1114 19.4452V10.7647C47.1114 10.4217 46.6893 10.105 46.3726 10.0259L23.9986 0.764932C23.8403 0.685778 23.4973 0.685778 23.339 0.764932L0.885764 10.0259C0.648304 10.105 0.38446 10.448 0.38446 10.7647V19.4452C0.38446 19.7882 0.542766 20.1048 0.885764 20.1839L11.6506 24.7221L0.885764 29.2074C0.542766 29.2866 0.38446 29.6296 0.38446 29.9462V38.6267C0.38446 38.9697 0.542766 39.2863 0.885764 39.3655L23.2598 48.6264C23.3654 48.6528 23.5237 48.7056 23.6028 48.7056C23.682 48.7056 23.8139 48.6792 23.9194 48.6264L46.4518 39.3655C46.7948 39.2071 47.1906 38.9433 47.1906 38.6267V29.9726C47.1906 29.6296 46.7684 29.313 46.4518 29.2338L35.5022 24.7221L46.4254 20.2103C46.7684 20.1312 47.1114 19.7882 47.1114 19.4452ZM23.5764 38.7322L12.8116 34.1413L23.5764 29.5504L34.3413 34.1413L23.5764 38.7322ZM23.5764 27.809L16.0569 24.7221L23.5764 21.6351L31.096 24.7221L23.5764 27.809ZM23.5764 19.5507L12.8116 14.9598L23.5764 10.3689L34.3413 14.9598L23.5764 19.5507ZM22.9168 8.94413L10.7272 14.1155L3.31314 10.9493L22.9168 2.77015V8.94413ZM36.584 14.1155L24.579 8.94413V2.77015L44.1827 10.8702L36.584 14.1155ZM2.04668 18.9439V12.2686L21.6504 20.6061L13.8933 23.8514L2.04668 18.9439ZM21.3338 28.7061L10.5689 33.297L3.04929 30.1309L13.8142 25.6983L21.3338 28.7061ZM2.04668 31.4765L22.9168 40.2361V46.674L2.04668 38.1518V31.4765ZM24.579 46.6476V40.2098L45.4492 31.4501V38.1254L24.579 46.6476ZM44.0244 30.0517L36.5048 33.2179L25.74 28.7061L33.2595 25.6191L44.0244 30.0517ZM33.4179 23.7986L25.74 20.5269L45.4228 12.1894V18.8647L33.4179 23.7986Z" fill="black"/>
</svg>
