<?xml version="1.0" encoding="UTF-8"?>
<!DOCTYPE svg PUBLIC "-//W3C//DTD SVG 1.1//EN" "http://www.w3.org/Graphics/SVG/1.1/DTD/svg11.dtd">
<svg xmlns="http://www.w3.org/2000/svg" version="1.1" width="1200px" height="675px" style="shape-rendering:geometricPrecision; text-rendering:geometricPrecision; image-rendering:optimizeQuality; fill-rule:evenodd; clip-rule:evenodd" xmlns:xlink="http://www.w3.org/1999/xlink">
<g><path style="opacity:0.992" fill="#231c19" d="M 762.5,164.5 C 783.702,163.018 800.202,171.351 812,189.5C 823.791,218.881 816.291,241.714 789.5,258C 764.295,266.704 743.795,260.537 728,239.5C 715.157,213.682 719.657,191.515 741.5,173C 748.153,169.066 755.153,166.233 762.5,164.5 Z M 766.5,183.5 C 782.411,183.264 792.911,190.597 798,205.5C 801.209,223.925 794.042,236.092 776.5,242C 751.283,244.113 739.116,232.613 740,207.5C 743.676,193.651 752.509,185.651 766.5,183.5 Z"/></g>
<g><path style="opacity:0.99" fill="#221b18" d="M 187.5,166.5 C 194.755,166.187 201.921,166.52 209,167.5C 217.732,183.962 226.732,200.296 236,216.5C 245.239,200.359 254.239,184.026 263,167.5C 270.079,166.52 277.245,166.187 284.5,166.5C 284.5,197.833 284.5,229.167 284.5,260.5C 278.242,260.81 272.076,260.476 266,259.5C 265.667,240.167 265.333,220.833 265,201.5C 257.278,214.947 250.111,228.614 243.5,242.5C 238.456,242.827 233.456,242.494 228.5,241.5C 221.602,228.039 214.436,214.706 207,201.5C 206.667,220.5 206.333,239.5 206,258.5C 203.276,259.776 200.276,260.442 197,260.5C 193.914,260.478 190.914,260.145 188,259.5C 187.5,228.502 187.333,197.502 187.5,166.5 Z"/></g>
<g><path style="opacity:0.993" fill="#221b18" d="M 358.5,166.5 C 361.898,166.18 365.232,166.513 368.5,167.5C 381.394,195.621 394.56,223.621 408,251.5C 409.145,254.432 409.978,257.432 410.5,260.5C 404.158,260.666 397.825,260.5 391.5,260C 388.449,254.73 385.782,249.23 383.5,243.5C 370.179,242.334 356.846,242.167 343.5,243C 341.504,248.82 338.837,254.32 335.5,259.5C 329.202,260.496 322.868,260.83 316.5,260.5C 317.022,257.432 317.855,254.432 319,251.5C 332.742,223.354 345.908,195.021 358.5,166.5 Z M 362.5,200.5 C 363.75,200.577 364.583,201.244 365,202.5C 367.986,210.831 371.319,218.831 375,226.5C 366.974,225.543 359.14,225.21 351.5,225.5C 355.747,217.426 359.414,209.092 362.5,200.5 Z"/></g>
<g><path style="opacity:0.993" fill="#221b18" d="M 440.5,166.5 C 457.837,166.333 475.17,166.5 492.5,167C 507.201,170.533 515.868,179.699 518.5,194.5C 516.272,209.811 507.605,218.978 492.5,222C 500.21,233.254 508.044,244.421 516,255.5C 517.009,257.025 517.509,258.692 517.5,260.5C 510.825,260.666 504.158,260.5 497.5,260C 489.031,248.217 480.698,236.383 472.5,224.5C 467.952,223.808 463.452,223.141 459,222.5C 458.5,235.162 458.333,247.829 458.5,260.5C 452.5,260.5 446.5,260.5 440.5,260.5C 440.474,228.988 440.474,197.655 440.5,166.5 Z M 458.5,182.5 C 466.97,182.591 475.47,182.591 484,182.5C 497.252,182.701 501.918,189.034 498,201.5C 495.531,203.652 492.698,205.152 489.5,206C 479.172,206.5 468.839,206.666 458.5,206.5C 458.5,198.5 458.5,190.5 458.5,182.5 Z"/></g>
<g><path style="opacity:0.992" fill="#221b18" d="M 552.5,166.5 C 570.503,166.333 588.503,166.5 606.5,167C 619.563,169.73 627.73,177.563 631,190.5C 631.306,207.521 623.139,218.188 606.5,222.5C 612.747,232.911 619.58,242.911 627,252.5C 628.902,254.884 630.069,257.551 630.5,260.5C 623.825,260.666 617.158,260.5 610.5,260C 601.79,247.412 592.956,234.912 584,222.5C 580.27,223.46 576.437,223.793 572.5,223.5C 572.813,235.551 572.479,247.551 571.5,259.5C 568.5,259.833 565.5,260.167 562.5,260.5C 559.061,260.446 555.894,259.78 553,258.5C 552.5,227.835 552.333,197.168 552.5,166.5 Z M 572.5,182.5 C 581.386,182.947 590.219,182.947 599,182.5C 606.957,183.128 611.79,187.294 613.5,195C 612.509,201.296 608.843,204.962 602.5,206C 592.506,206.5 582.506,206.666 572.5,206.5C 572.5,198.5 572.5,190.5 572.5,182.5 Z"/></g>
<g><path style="opacity:0.995" fill="#221b18" d="M 669.5,166.5 C 675.5,166.5 681.5,166.5 687.5,166.5C 687.667,197.502 687.5,228.502 687,259.5C 681,260.833 675,260.833 669,259.5C 668.175,228.428 668.342,197.428 669.5,166.5 Z"/></g>
<g><path style="opacity:0.993" fill="#221b18" d="M 839.5,166.5 C 863.836,166.333 888.169,166.5 912.5,167C 913.833,172.667 913.833,178.333 912.5,184C 903.84,184.5 895.173,184.666 886.5,184.5C 886.667,209.169 886.5,233.836 886,258.5C 883.106,259.78 879.939,260.446 876.5,260.5C 873.061,260.446 869.894,259.78 867,258.5C 866.5,233.836 866.333,209.169 866.5,184.5C 857.827,184.666 849.16,184.5 840.5,184C 839.525,178.259 839.192,172.425 839.5,166.5 Z"/></g>
<g><path style="opacity:0.993" fill="#221b18" d="M 939.5,166.5 C 963.833,166.5 988.167,166.5 1012.5,166.5C 1012.81,172.425 1012.47,178.259 1011.5,184C 1002.84,184.5 994.173,184.666 985.5,184.5C 985.667,209.502 985.5,234.502 985,259.5C 979,260.833 973,260.833 967,259.5C 966.5,234.502 966.333,209.502 966.5,184.5C 957.827,184.666 949.16,184.5 940.5,184C 939.525,178.259 939.192,172.425 939.5,166.5 Z"/></g>
<g><path style="opacity:0.996" fill="#231c19" d="M 309.5,315.5 C 350.595,316.806 380.762,335.472 400,371.5C 417.878,416.482 409.045,455.316 373.5,488C 331.926,516.888 290.926,516.555 250.5,487C 214.258,452.019 206.758,411.519 228,365.5C 246.627,334.936 273.794,318.269 309.5,315.5 Z M 305.5,349.5 C 342.748,348.935 365.915,366.601 375,402.5C 377.853,435.305 364.353,458.471 334.5,472C 295.709,482.019 268.209,468.852 252,432.5C 243.252,396.347 255.418,370.18 288.5,354C 294.211,352.166 299.878,350.666 305.5,349.5 Z"/></g>
<g><path style="opacity:0.996" fill="#221b18" d="M 898.5,315.5 C 928.352,316.169 949.852,329.835 963,356.5C 973.764,391.55 963.931,419.05 933.5,439C 902.096,452.782 874.596,446.948 851,421.5C 831.043,390.057 833.543,360.557 858.5,333C 870.12,323.018 883.453,317.185 898.5,315.5 Z M 894.5,345.5 C 914.172,343.099 928.338,351.099 937,369.5C 942.141,391.051 934.641,406.217 914.5,415C 891.034,420.519 875.201,412.019 867,389.5C 864.332,367.245 873.499,352.578 894.5,345.5 Z"/></g>
<g><path style="opacity:0.996" fill="#221b18" d="M 30.5,319.5 C 60.8352,319.333 91.1685,319.5 121.5,320C 146.263,321.285 163.763,333.118 174,355.5C 179.964,375.145 175.797,392.312 161.5,407C 187.075,427.71 191.575,452.21 175,480.5C 163.751,494.266 149.251,502.432 131.5,505C 97.835,505.5 64.1683,505.667 30.5,505.5C 30.5,443.5 30.5,381.5 30.5,319.5 Z M 64.5,348.5 C 85.2067,348.072 105.873,348.572 126.5,350C 142.695,356.224 147.528,367.391 141,383.5C 137.285,388.548 132.452,392.048 126.5,394C 105.887,395.453 85.2205,395.953 64.5,395.5C 64.5,379.833 64.5,364.167 64.5,348.5 Z M 64.5,424.5 C 87.5526,424.042 110.553,424.542 133.5,426C 150.199,432.567 155.699,444.4 150,461.5C 145.419,469.4 138.586,474.233 129.5,476C 107.878,477.444 86.2117,477.944 64.5,477.5C 64.5,459.833 64.5,442.167 64.5,424.5 Z"/></g>
<g><path style="opacity:0.996" fill="#221b18" d="M 446.5,319.5 C 452.621,319.09 458.621,319.59 464.5,321C 498.481,359.861 532.314,398.695 566,437.5C 566.5,398.168 566.667,358.835 566.5,319.5C 577.748,319.179 588.915,319.513 600,320.5C 600.5,382.166 600.667,443.832 600.5,505.5C 594.491,505.666 588.491,505.499 582.5,505C 548.333,466.167 514.167,427.333 480,388.5C 479.5,427.499 479.333,466.499 479.5,505.5C 468.5,505.5 457.5,505.5 446.5,505.5C 446.477,443.046 446.477,381.046 446.5,319.5 Z"/></g>
<g><path style="opacity:0.996" fill="#221b18" d="M 632.5,319.5 C 644.518,319.168 656.518,319.501 668.5,320.5C 685.568,358.979 702.402,397.646 719,436.5C 719.615,438.116 720.615,439.449 722,440.5C 739.339,400.477 756.672,360.477 774,320.5C 786.086,319.512 798.253,319.178 810.5,319.5C 784.371,381.721 757.371,443.554 729.5,505C 724.136,505.829 718.802,505.663 713.5,504.5C 687.059,445.951 660.892,387.285 635,328.5C 633.57,325.647 632.737,322.647 632.5,319.5 Z"/></g>
<g><path style="opacity:0.995" fill="#221b18" d="M 1167.5,318.5 C 1169.27,319.314 1169.77,320.648 1169,322.5C 1144.28,356.221 1119.95,390.221 1096,424.5C 1095.5,451.498 1095.33,478.498 1095.5,505.5C 1084.17,505.5 1072.83,505.5 1061.5,505.5C 1061.67,478.498 1061.5,451.498 1061,424.5C 1036.24,389.971 1011.74,355.305 987.5,320.5C 1000.15,319.334 1012.82,319.167 1025.5,320C 1043.33,345.167 1061.17,370.333 1079,395.5C 1096.13,370.072 1113.63,344.905 1131.5,320C 1143.67,319.831 1155.67,319.331 1167.5,318.5 Z"/></g>
<g><path style="opacity:0.075" fill="#211b17" d="M 821.5,477.5 C 820.833,476.167 820.833,476.167 821.5,477.5 Z"/></g>
<g><path style="opacity:0.957" fill="#fe9461" d="M 821.5,477.5 C 875.5,477.5 929.5,477.5 983.5,477.5C 983.5,486.833 983.5,496.167 983.5,505.5C 929.499,505.667 875.499,505.5 821.5,505C 821.445,496.043 821.445,486.876 821.5,477.5 Z"/></g>
</svg>
