<?xml version="1.0" encoding="UTF-8"?>
<!DOCTYPE svg PUBLIC "-//W3C//DTD SVG 1.1//EN" "http://www.w3.org/Graphics/SVG/1.1/DTD/svg11.dtd">
<svg xmlns="http://www.w3.org/2000/svg" version="1.1" width="2400px" height="2400px" style="shape-rendering:geometricPrecision; text-rendering:geometricPrecision; image-rendering:optimizeQuality; fill-rule:evenodd; clip-rule:evenodd" xmlns:xlink="http://www.w3.org/1999/xlink">
<g><path style="opacity:0.97" fill="#0e0f0f" d="M 891.5,1006.5 C 893.857,1006.34 896.19,1006.5 898.5,1007C 929.028,1076.92 959.361,1146.92 989.5,1217C 984.128,1216.08 978.628,1215.58 973,1215.5C 968.032,1215.35 963.199,1216.01 958.5,1217.5C 958.167,1217.17 957.833,1216.83 957.5,1216.5C 947.376,1188.96 936.376,1161.79 924.5,1135C 899.169,1134.5 873.836,1134.33 848.5,1134.5C 838.248,1161.92 828.581,1189.59 819.5,1217.5C 812.609,1214.9 805.776,1214.9 799,1217.5C 829.235,1147.02 860.068,1076.68 891.5,1006.5 Z M 887.5,1047.5 C 898.735,1071.85 909.402,1096.52 919.5,1121.5C 898.164,1121.67 876.831,1121.5 855.5,1121C 866.31,1096.55 876.977,1072.05 887.5,1047.5 Z"/></g>
<g><path style="opacity:0.97" fill="#0e0f0f" d="M 1545.5,1006.5 C 1548.71,1006.01 1551.54,1006.68 1554,1008.5C 1583.74,1077.87 1613.57,1147.21 1643.5,1216.5C 1643.17,1216.83 1642.83,1217.17 1642.5,1217.5C 1632.5,1214.83 1622.5,1214.83 1612.5,1217.5C 1602.68,1189.7 1591.68,1162.36 1579.5,1135.5C 1554.84,1134.33 1530.17,1134.17 1505.5,1135C 1493.16,1161.87 1482.49,1189.37 1473.5,1217.5C 1466.94,1214.9 1460.44,1214.9 1454,1217.5C 1454.36,1214.08 1455.36,1210.74 1457,1207.5C 1486.8,1140.6 1516.3,1073.6 1545.5,1006.5 Z M 1541.5,1047.5 C 1552.85,1071.72 1563.85,1096.22 1574.5,1121C 1553.17,1121.5 1531.84,1121.67 1510.5,1121.5C 1520.83,1096.84 1531.16,1072.18 1541.5,1047.5 Z"/></g>
<g><path style="opacity:0.97" fill="#0e0e0f" d="M 2047.5,1216.5 C 2046.83,1216.5 2046.5,1216.17 2046.5,1215.5C 2077.38,1146.07 2108.55,1076.74 2140,1007.5C 2142.4,1006.4 2144.9,1006.23 2147.5,1007C 2178.03,1076.92 2208.36,1146.92 2238.5,1217C 2232.96,1216.07 2227.29,1215.57 2221.5,1215.5C 2216.68,1215.3 2212.01,1215.97 2207.5,1217.5C 2207.17,1217.17 2206.83,1216.83 2206.5,1216.5C 2196.38,1188.96 2185.38,1161.79 2173.5,1135C 2148.17,1134.5 2122.84,1134.33 2097.5,1134.5C 2087.25,1161.92 2077.58,1189.59 2068.5,1217.5C 2061.61,1215.22 2054.61,1214.89 2047.5,1216.5 Z M 2136.5,1047.5 C 2147.68,1071.88 2158.35,1096.54 2168.5,1121.5C 2147.16,1121.67 2125.83,1121.5 2104.5,1121C 2115.31,1096.55 2125.98,1072.05 2136.5,1047.5 Z"/></g>
<g><path style="opacity:0.975" fill="#100f10" d="M 538.5,1010.5 C 565.835,1010.33 593.169,1010.5 620.5,1011C 661.97,1015.45 676.803,1037.62 665,1077.5C 657.443,1091.37 646.277,1101.21 631.5,1107C 623.881,1109.65 616.214,1112.15 608.5,1114.5C 632.718,1146.56 657.884,1177.89 684,1208.5C 686.51,1211.2 688.176,1214.2 689,1217.5C 677.71,1214.86 666.376,1214.86 655,1217.5C 630.385,1182.87 604.218,1149.37 576.5,1117C 572.514,1116.5 568.514,1116.33 564.5,1116.5C 564.833,1150.17 564.5,1183.84 563.5,1217.5C 555.5,1214.83 547.5,1214.83 539.5,1217.5C 538.5,1148.5 538.167,1079.5 538.5,1010.5 Z M 564.5,1021.5 C 575.318,1021.75 585.985,1021.91 596.5,1022C 635.432,1023.26 648.932,1042.43 637,1079.5C 628.946,1091.62 617.78,1099.46 603.5,1103C 590.507,1104.71 577.507,1104.87 564.5,1103.5C 564.5,1076.17 564.5,1048.83 564.5,1021.5 Z"/></g>
<g><path style="opacity:0.971" fill="#0e0e0f" d="M 1128.5,1010.5 C 1131.9,1010.18 1135.23,1010.51 1138.5,1011.5C 1163.27,1065.05 1191.1,1116.71 1222,1166.5C 1250.45,1114.42 1279.29,1062.59 1308.5,1011C 1310.81,1010.5 1313.14,1010.34 1315.5,1010.5C 1323.11,1079.69 1331.11,1148.69 1339.5,1217.5C 1330.14,1214.9 1320.81,1214.9 1311.5,1217.5C 1307.04,1179.59 1303.2,1141.59 1300,1103.5C 1298.65,1089.4 1296.65,1075.4 1294,1061.5C 1267.64,1112.23 1241.3,1162.89 1215,1213.5C 1188.98,1163.13 1162.64,1112.79 1136,1062.5C 1129.4,1114.03 1124.24,1165.69 1120.5,1217.5C 1114,1214.86 1107.5,1214.86 1101,1217.5C 1110.39,1148.57 1119.56,1079.57 1128.5,1010.5 Z"/></g>
<g><path style="opacity:0.965" fill="#0d0e0f" d="M 1758.5,1010.5 C 1794.83,1010.33 1831.17,1010.5 1867.5,1011C 1910.33,1015.16 1936.17,1038.33 1945,1080.5C 1951.71,1117.3 1944.04,1150.63 1922,1180.5C 1904.53,1200.82 1882.36,1211.98 1855.5,1214C 1823.19,1215.41 1790.85,1215.91 1758.5,1215.5C 1758.5,1147.17 1758.5,1078.83 1758.5,1010.5 Z M 1810.5,1021.5 C 1831.13,1020.28 1851.46,1022.11 1871.5,1027C 1896.65,1035.1 1911.15,1052.27 1915,1078.5C 1919.52,1104.27 1917.86,1129.6 1910,1154.5C 1897.24,1183.98 1874.74,1199.81 1842.5,1202C 1823.84,1202.5 1805.17,1202.67 1786.5,1202.5C 1786.5,1142.83 1786.5,1083.17 1786.5,1023.5C 1794.69,1023.3 1802.69,1022.63 1810.5,1021.5 Z"/></g>
<g><path style="opacity:0.991" fill="#c5494b" d="M 274.5,1014.5 C 349.303,1011.81 407.137,1041.48 448,1103.5C 483.527,1166.22 484.527,1229.55 451,1293.5C 446.333,1300.83 441.667,1308.17 437,1315.5C 427.565,1325.31 416.065,1329.15 402.5,1327C 388.807,1324.31 379.307,1316.48 374,1303.5C 369.093,1281.54 363.093,1259.87 356,1238.5C 345.773,1213.6 327.607,1198.1 301.5,1192C 325.126,1184.37 342.626,1169.54 354,1147.5C 365.965,1107.39 355.131,1074.89 321.5,1050C 304.295,1038.61 285.295,1032.27 264.5,1031C 257,1030.5 249.5,1030 242,1029.5C 232.156,1030.31 222.323,1030.81 212.5,1031C 232.506,1022.51 253.173,1017.01 274.5,1014.5 Z"/></g>
<g><path style="opacity:0.98" fill="#c5494b" d="M 186.5,1048.5 C 189.256,1045.61 192.589,1043.44 196.5,1042C 232.956,1029.75 266.956,1034.75 298.5,1057C 325.051,1080.68 333.884,1109.85 325,1144.5C 317.412,1167.09 302.579,1182.92 280.5,1192C 307.525,1201.02 325.025,1219.19 333,1246.5C 336,1263.17 339,1279.84 342,1296.5C 350.399,1322.3 368.232,1335.3 395.5,1335.5C 403.14,1335.53 410.64,1334.53 418,1332.5C 419.563,1333.1 419.396,1333.94 417.5,1335C 410.516,1340.33 402.849,1344.33 394.5,1347C 345.561,1354.28 313.394,1334.45 298,1287.5C 293.398,1274.43 289.731,1261.09 287,1247.5C 277.95,1218.45 258.784,1199.95 229.5,1192C 247.044,1184.48 262.211,1173.65 275,1159.5C 290.985,1131.63 289.985,1104.29 272,1077.5C 249.384,1051.02 220.884,1041.35 186.5,1048.5 Z"/></g>
<g><path style="opacity:0.165" fill="#893636" d="M 186.5,1048.5 C 186.103,1049.53 185.437,1049.69 184.5,1049C 185.094,1048.54 185.761,1048.37 186.5,1048.5 Z"/></g>
<g><path style="opacity:0.993" fill="#c5494b" d="M 191.5,1057.5 C 219.853,1057.69 239.02,1071.03 249,1097.5C 261.107,1130.52 253.94,1158.69 227.5,1182C 222.638,1185.69 217.638,1189.19 212.5,1192.5C 234.508,1206.01 249.674,1225.01 258,1249.5C 261.827,1266.64 266.16,1283.64 271,1300.5C 282.109,1331.5 303.943,1350 336.5,1356C 355.206,1359.76 373.706,1358.92 392,1353.5C 393.033,1353.55 393.366,1353.88 393,1354.5C 335.459,1391.55 275.292,1396.72 212.5,1370C 143.324,1334.54 107.324,1277.71 104.5,1199.5C 106.312,1155.55 120.478,1116.22 147,1081.5C 152.167,1076.33 157.333,1071.17 162.5,1066C 171.789,1061.43 181.455,1058.6 191.5,1057.5 Z"/></g>
<g><path style="opacity:0.835" fill="#191313" d="M 2270.5,1179.5 C 2284.43,1178.43 2292.43,1184.77 2294.5,1198.5C 2291.33,1216.57 2281.33,1222.41 2264.5,1216C 2255.73,1207.31 2254.23,1197.48 2260,1186.5C 2263.15,1183.49 2266.65,1181.16 2270.5,1179.5 Z M 2271.5,1182.5 C 2283.41,1181.62 2290.08,1187.12 2291.5,1199C 2290.01,1210.76 2283.34,1215.76 2271.5,1214C 2266.33,1212.83 2263.17,1209.67 2262,1204.5C 2259.49,1194.54 2262.65,1187.21 2271.5,1182.5 Z M 2273.5,1190.5 C 2275.14,1190.29 2276.64,1190.62 2278,1191.5C 2278.5,1193.47 2278.66,1195.47 2278.5,1197.5C 2276.86,1197.29 2275.36,1197.62 2274,1198.5C 2273.5,1195.85 2273.34,1193.19 2273.5,1190.5 Z"/></g>
<g><path style="opacity:0.82" fill="#131011" d="M 2268.5,1187.5 C 2272.18,1187.33 2275.85,1187.5 2279.5,1188C 2283.21,1189.69 2284.38,1192.52 2283,1196.5C 2281.7,1197.56 2280.54,1198.73 2279.5,1200C 2280.7,1202.89 2282.03,1205.73 2283.5,1208.5C 2281.83,1209.83 2280.17,1209.83 2278.5,1208.5C 2274.28,1197.6 2272.61,1197.93 2273.5,1209.5C 2271.83,1209.5 2270.17,1209.5 2268.5,1209.5C 2268.5,1202.17 2268.5,1194.83 2268.5,1187.5 Z M 2273.5,1190.5 C 2273.34,1193.19 2273.5,1195.85 2274,1198.5C 2275.36,1197.62 2276.86,1197.29 2278.5,1197.5C 2278.66,1195.47 2278.5,1193.47 2278,1191.5C 2276.64,1190.62 2275.14,1190.29 2273.5,1190.5 Z"/></g>
<g><path style="opacity:0.165" fill="#893636" d="M 2046.5,1215.5 C 2046.5,1216.17 2046.83,1216.5 2047.5,1216.5C 2047.44,1217.04 2047.11,1217.38 2046.5,1217.5C 2045.23,1216.74 2045.23,1216.08 2046.5,1215.5 Z"/></g>
<g><path style="opacity:0.952" fill="#c4494b" d="M 1758.5,1270.5 C 1759.82,1270.33 1760.99,1270.66 1762,1271.5C 1779.8,1311.75 1797.3,1352.08 1814.5,1392.5C 1808.13,1392.83 1801.8,1392.5 1795.5,1391.5C 1789.5,1377.17 1783.5,1362.83 1777.5,1348.5C 1762.94,1347.18 1748.44,1347.18 1734,1348.5C 1727.47,1362.92 1721.64,1377.59 1716.5,1392.5C 1712.17,1392.5 1707.83,1392.5 1703.5,1392.5C 1721.44,1351.67 1739.78,1311.01 1758.5,1270.5 Z M 1754.5,1294.5 C 1761.39,1308.62 1768.06,1322.96 1774.5,1337.5C 1761.85,1338.67 1749.18,1338.83 1736.5,1338C 1743.19,1323.78 1749.19,1309.28 1754.5,1294.5 Z"/></g>
<g><path style="opacity:0.955" fill="#c4494b" d="M 2196.5,1270.5 C 2198.77,1270.14 2200.6,1270.81 2202,1272.5C 2218.74,1312.21 2235.57,1351.87 2252.5,1391.5C 2245.94,1392.81 2239.44,1392.81 2233,1391.5C 2228.83,1376.49 2222.99,1362.15 2215.5,1348.5C 2200.85,1347.5 2186.18,1347.17 2171.5,1347.5C 2165.58,1362.09 2159.75,1376.76 2154,1391.5C 2149.59,1392.63 2145.09,1392.8 2140.5,1392C 2159.31,1351.55 2177.98,1311.05 2196.5,1270.5 Z M 2193.5,1295.5 C 2195.45,1297.35 2196.95,1299.69 2198,1302.5C 2202.45,1314.51 2207.28,1326.34 2212.5,1338C 2199.83,1338.67 2187.17,1338.67 2174.5,1338C 2181.25,1324 2187.58,1309.84 2193.5,1295.5 Z"/></g>
<g><path style="opacity:0.95" fill="#c3494b" d="M 1316.5,1274.5 C 1331.84,1274.33 1347.17,1274.5 1362.5,1275C 1388.86,1276.37 1398.7,1289.87 1392,1315.5C 1389.65,1320.86 1386.15,1325.36 1381.5,1329C 1366.47,1338.62 1350.14,1342.12 1332.5,1339.5C 1332.5,1357.17 1332.5,1374.83 1332.5,1392.5C 1327.17,1392.5 1321.83,1392.5 1316.5,1392.5C 1316.5,1353.17 1316.5,1313.83 1316.5,1274.5 Z M 1332.5,1281.5 C 1342.9,1281.1 1353.23,1281.6 1363.5,1283C 1372.47,1286.82 1376.8,1293.65 1376.5,1303.5C 1375.46,1319.43 1367.12,1328.93 1351.5,1332C 1345.18,1332.5 1338.84,1332.67 1332.5,1332.5C 1332.5,1315.5 1332.5,1298.5 1332.5,1281.5 Z"/></g>
<g><path style="opacity:0.968" fill="#c5494b" d="M 1521.5,1274.5 C 1527.17,1274.5 1532.83,1274.5 1538.5,1274.5C 1538.5,1310.83 1538.5,1347.17 1538.5,1383.5C 1554.25,1384.01 1569.91,1383.34 1585.5,1381.5C 1585.5,1385.17 1585.5,1388.83 1585.5,1392.5C 1564.17,1392.5 1542.83,1392.5 1521.5,1392.5C 1521.5,1353.17 1521.5,1313.83 1521.5,1274.5 Z"/></g>
<g><path style="opacity:0.949" fill="#c5494b" d="M 1934.5,1274.5 C 1964.83,1274.5 1995.17,1274.5 2025.5,1274.5C 2025.51,1276.31 2025.01,1277.98 2024,1279.5C 1998.52,1313.13 1974.02,1347.46 1950.5,1382.5C 1961,1382.83 1971.5,1383.17 1982,1383.5C 1996.24,1383.72 2010.41,1383.05 2024.5,1381.5C 2025.49,1385.11 2025.82,1388.77 2025.5,1392.5C 1992.17,1392.5 1958.83,1392.5 1925.5,1392.5C 1925.34,1390.8 1925.51,1389.13 1926,1387.5C 1952.27,1353.13 1977.44,1317.96 2001.5,1282C 1979.7,1280.74 1958.03,1281.91 1936.5,1285.5C 1935.26,1285.44 1934.26,1284.94 1933.5,1284C 1934.07,1280.9 1934.41,1277.73 1934.5,1274.5 Z"/></g>
<g><path style="opacity:0.886" fill="#c5494b" d="M 524.5,1276.5 C 774.5,1276.5 1024.5,1276.5 1274.5,1276.5C 1274.5,1278.83 1274.5,1281.17 1274.5,1283.5C 1024.5,1283.5 774.5,1283.5 524.5,1283.5C 524.5,1281.17 524.5,1278.83 524.5,1276.5 Z"/></g>
<g><path style="opacity:0.889" fill="#c6494b" d="M 484.5,1330.5 C 747.833,1330.5 1011.17,1330.5 1274.5,1330.5C 1274.5,1332.83 1274.5,1335.17 1274.5,1337.5C 1011.5,1337.67 748.5,1337.5 485.5,1337C 484.577,1334.96 484.244,1332.79 484.5,1330.5 Z"/></g>
<g><path style="opacity:0.972" fill="#bf4749" d="M 427.5,1385.5 C 709.5,1385.33 991.5,1385.5 1273.5,1386C 1274.42,1388.04 1274.76,1390.21 1274.5,1392.5C 991.833,1392.67 709.166,1392.5 426.5,1392C 426.968,1390.18 427.301,1388.01 427.5,1385.5 Z"/></g>
</svg>
