<?xml version="1.0" encoding="UTF-8"?>
<!DOCTYPE svg PUBLIC "-//W3C//DTD SVG 1.1//EN" "http://www.w3.org/Graphics/SVG/1.1/DTD/svg11.dtd">
<svg xmlns="http://www.w3.org/2000/svg" version="1.1" width="3840px" height="2160px" style="shape-rendering:geometricPrecision; text-rendering:geometricPrecision; image-rendering:optimizeQuality; fill-rule:evenodd; clip-rule:evenodd" xmlns:xlink="http://www.w3.org/1999/xlink">
<g><path style="opacity:0.999" fill="#eb511c" d="M 1342.5,777.5 C 1377.19,777.087 1411.85,777.587 1446.5,779C 1475.98,783.69 1504.65,791.356 1532.5,802C 1535.47,802.763 1537.97,804.263 1540,806.5C 1540.83,851.738 1540.66,896.904 1539.5,942C 1537.45,942.325 1535.45,941.991 1533.5,941C 1529.13,935.746 1523.96,931.579 1518,928.5C 1478.62,906.588 1435.12,894.921 1387.5,893.5C 1340.71,893.902 1300.38,909.402 1266.5,940C 1239.28,969.596 1222.78,1004.43 1217,1044.5C 1209.77,1094.23 1218.44,1140.9 1243,1184.5C 1268.71,1224.27 1304.54,1248.77 1350.5,1258C 1408.79,1267.5 1463.95,1258.66 1516,1231.5C 1522.79,1227.05 1529.29,1222.21 1535.5,1217C 1537.11,1216.28 1538.61,1216.45 1540,1217.5C 1540.67,1259.5 1540.67,1301.5 1540,1343.5C 1537.32,1347.52 1533.49,1349.69 1528.5,1350C 1526.16,1351.32 1523.99,1352.82 1522,1354.5C 1521.67,1354.17 1521.33,1353.83 1521,1353.5C 1516.58,1355.53 1512.58,1357.53 1509,1359.5C 1507.85,1358.54 1506.85,1358.88 1506,1360.5C 1504.33,1360.5 1502.67,1360.5 1501,1360.5C 1500.68,1362.57 1499.84,1362.9 1498.5,1361.5C 1470.24,1370.52 1441.24,1376.02 1411.5,1378C 1409.17,1378.33 1406.83,1378.67 1404.5,1379C 1404.04,1379.41 1403.71,1379.91 1403.5,1380.5C 1386.85,1381.5 1370.18,1381.83 1353.5,1381.5C 1353.5,1380.5 1353.5,1379.5 1353.5,1378.5C 1278.11,1374.41 1213.94,1344.74 1161,1289.5C 1103.88,1221.8 1078.55,1143.47 1085,1054.5C 1090.33,986.215 1114.67,925.882 1158,873.5C 1201.88,825.029 1256.05,794.196 1320.5,781C 1327.93,779.501 1335.26,778.334 1342.5,777.5 Z"/></g>
<g><path style="opacity:0.999" fill="#eb511c" d="M 1068.5,786.5 C 1069.63,788.966 1069.8,791.633 1069,794.5C 996.388,985.917 924.388,1176.92 853,1367.5C 807.301,1367.9 761.468,1368.07 715.5,1368C 672.4,1254.04 630.067,1139.71 588.5,1025C 572.057,981.62 555.724,938.62 539.5,896C 527.543,861.511 514.71,827.011 501,792.5C 500.333,791.167 500.333,789.833 501,788.5C 546.762,787.337 592.596,787.17 638.5,788C 639.416,788.374 640.25,788.874 641,789.5C 681.117,910.787 721.451,1030.45 762,1148.5C 768.624,1169.98 774.624,1192.64 780,1216.5C 781.436,1220.47 783.436,1224.14 786,1227.5C 793.765,1192.54 803.765,1158.2 816,1124.5C 854.633,1013.63 893.3,901.961 932,789.5C 932.75,788.874 933.584,788.374 934.5,788C 979.335,787.833 1024,787.333 1068.5,786.5 Z"/></g>
<g><path style="opacity:0.422" fill="#ec591b" d="M 3006.5,788.5 C 3048.66,787.501 3091,787.168 3133.5,787.5C 3133.5,788.833 3133.5,790.167 3133.5,791.5C 3132.6,790.791 3132.26,789.791 3132.5,788.5C 3090.5,788.5 3048.5,788.5 3006.5,788.5 Z"/></g>
<g><path style="opacity:0.999" fill="#eb511c" d="M 466.5,903.5 C 428.876,902.512 391.21,902.179 353.5,902.5C 351.565,903.15 349.565,903.483 347.5,903.5C 347.667,1058.17 347.5,1212.83 347,1367.5C 305.244,1367.24 263.41,1367.58 221.5,1368.5C 220.316,1214.9 220.316,1061.4 221.5,908C 219.715,906.837 217.715,906.17 215.5,906C 211.333,905.833 207.167,905.667 203,905.5C 167.821,906.643 132.321,906.643 96.5,905.5C 96.5,866.167 96.5,826.833 96.5,787.5C 221.5,787.333 346.5,787.5 471.5,788C 472.663,825.762 472.829,863.595 472,901.5C 470.662,904.082 468.829,904.749 466.5,903.5 Z"/></g>
<g><path style="opacity:0.999" fill="#eb511c" d="M 2304.5,1360.5 C 2304.5,1362.83 2304.5,1365.17 2304.5,1367.5C 2266.01,1366.2 2227.68,1366.2 2189.5,1367.5C 2186.86,1368.98 2184.36,1368.65 2182,1366.5C 2170.31,1263.32 2158.48,1160.15 2146.5,1057C 2146.56,1055.56 2146.89,1054.23 2147.5,1053C 2146.71,1051.91 2146.04,1050.75 2145.5,1049.5C 2145.87,1040.53 2145.87,1031.7 2145.5,1023C 2143.6,1020.2 2143.27,1017.37 2144.5,1014.5C 2143.93,1012.94 2143.26,1011.44 2142.5,1010C 2142.25,994.412 2142.58,978.745 2143.5,963C 2143.1,960.1 2142.43,957.267 2141.5,954.5C 2140.2,955.09 2139.37,956.09 2139,957.5C 2130.36,989.439 2121.03,1021.77 2111,1054.5C 2085.29,1124.14 2059.79,1193.98 2034.5,1264C 2034.83,1264.33 2035.17,1264.67 2035.5,1265C 2023.25,1299 2010.58,1332.84 1997.5,1366.5C 1970.82,1367.18 1944.15,1367.85 1917.5,1368.5C 1915.62,1368.12 1914.12,1367.12 1913,1365.5C 1878.28,1269.83 1843.62,1174.49 1809,1079.5C 1795.63,1040.41 1783.3,1001.07 1772,961.5C 1771.5,962 1771,962.5 1770.5,963C 1771.65,974.424 1771.82,985.924 1771,997.5C 1769.19,1019.15 1767.52,1040.82 1766,1062.5C 1758.55,1127.53 1751.05,1192.53 1743.5,1257.5C 1742.99,1264.25 1742.99,1270.41 1743.5,1276C 1742.83,1277 1742.17,1278 1741.5,1279C 1741.83,1281.33 1742.17,1283.67 1742.5,1286C 1739.03,1312.41 1735.86,1338.91 1733,1365.5C 1732.63,1366.42 1732.13,1367.25 1731.5,1368C 1729.67,1368.17 1727.83,1368.33 1726,1368.5C 1690,1368.45 1654,1368.45 1618,1368.5C 1615.3,1368.61 1612.8,1368.11 1610.5,1367C 1626.28,1254.2 1642.28,1140.53 1658.5,1026C 1657.63,1024.14 1657.97,1022.3 1659.5,1020.5C 1658.33,1018.31 1658.66,1016.14 1660.5,1014C 1659.78,1012 1659.45,1009.83 1659.5,1007.5C 1659.98,1006.52 1660.64,1005.69 1661.5,1005C 1660.94,1004.28 1660.61,1003.44 1660.5,1002.5C 1663.51,986.285 1665.67,969.951 1667,953.5C 1674.73,898.129 1682.56,842.795 1690.5,787.5C 1734.17,787.333 1777.83,787.5 1821.5,788C 1822.31,788.308 1822.97,788.808 1823.5,789.5C 1844.59,850.306 1866.26,910.472 1888.5,970C 1903.79,1013.7 1919.46,1057.53 1935.5,1101.5C 1943.43,1128.54 1951.1,1155.87 1958.5,1183.5C 1959.8,1182.91 1960.63,1181.91 1961,1180.5C 1971.65,1137.57 1984.32,1095.24 1999,1053.5C 2031.31,965.231 2063.31,876.897 2095,788.5C 2137.76,787.337 2180.6,787.17 2223.5,788C 2225.07,789.826 2225.91,791.993 2226,794.5C 2226.32,798.195 2226.82,801.862 2227.5,805.5C 2226.26,807.5 2226.6,809.334 2228.5,811C 2228.38,815.877 2228.38,820.711 2228.5,825.5C 2230.61,835.14 2232.44,845.14 2234,855.5C 2247.5,955.167 2261.67,1054.5 2276.5,1153.5C 2276.55,1155.83 2276.22,1158 2275.5,1160C 2276.5,1163 2277.5,1166 2278.5,1169C 2278.33,1170.12 2278,1171.28 2277.5,1172.5C 2287.27,1235.04 2296.27,1297.71 2304.5,1360.5 Z"/></g>
<g><path style="opacity:0.999" fill="#eb511c" d="M 2569.5,787.5 C 2614.21,787.172 2658.88,787.505 2703.5,788.5C 2722.16,835.661 2741.82,882.494 2762.5,929C 2772.14,954.841 2782.64,980.674 2794,1006.5C 2794.98,1008.74 2795.48,1011.07 2795.5,1013.5C 2791.69,1014.75 2787.86,1016.08 2784,1017.5C 2783.59,1017.04 2783.09,1016.71 2782.5,1016.5C 2781.23,1017.56 2780.06,1018.56 2779,1019.5C 2777.22,1018.52 2775.55,1018.85 2774,1020.5C 2771.81,1019.55 2769.48,1019.55 2767,1020.5C 2764.21,1021.56 2761.54,1022.9 2759,1024.5C 2757.13,1023.91 2755.46,1024.58 2754,1026.5C 2751.02,1025.49 2748.35,1026.15 2746,1028.5C 2745.59,1028.04 2745.09,1027.71 2744.5,1027.5C 2724.83,1033.67 2705.16,1039.5 2685.5,1045C 2682.65,1040.76 2679.98,1036.43 2677.5,1032C 2676.17,1025.09 2673.67,1018.26 2670,1011.5C 2658.13,979.213 2647.46,946.546 2638,913.5C 2636.49,914.257 2635.15,915.257 2634,916.5C 2619.37,970.05 2601.37,1022.38 2580,1073.5C 2575.22,1077.43 2569.88,1079.1 2564,1078.5C 2554.18,1082.74 2544.01,1086.24 2533.5,1089C 2509.47,1095.06 2486.64,1101.56 2465,1108.5C 2463.85,1107.54 2462.85,1107.88 2462,1109.5C 2460.41,1108.27 2459.08,1108.61 2458,1110.5C 2457.67,1110.17 2457.33,1109.83 2457,1109.5C 2453.13,1111.54 2449.46,1113.2 2446,1114.5C 2444.47,1114.11 2442.81,1114.11 2441,1114.5C 2439.56,1113.07 2439.23,1111.4 2440,1109.5C 2450.86,1083.91 2461.53,1058.25 2472,1032.5C 2503.53,951.781 2534.87,871.781 2566,792.5C 2566.7,790.416 2567.86,788.749 2569.5,787.5 Z"/></g>
<g><path style="opacity:0.999" fill="#eb511c" d="M 3006.5,788.5 C 3048.5,788.5 3090.5,788.5 3132.5,788.5C 3132.26,789.791 3132.6,790.791 3133.5,791.5C 3133.34,943.279 3133.51,1095.28 3134,1247.5C 3134.5,1248.67 3135.33,1249.5 3136.5,1250C 3140.5,1250.17 3144.5,1250.33 3148.5,1250.5C 3208.63,1249.9 3269.8,1249.56 3332,1249.5C 3336.04,1251.56 3337.21,1254.56 3335.5,1258.5C 3334.5,1294.33 3334.17,1330.33 3334.5,1366.5C 3229,1366.17 3123.67,1366.5 3018.5,1367.5C 3015.02,1368.64 3011.36,1368.81 3007.5,1368C 3006.86,1365.09 3006.52,1362.09 3006.5,1359C 3006.52,1168.88 3006.52,978.713 3006.5,788.5 Z"/></g>
<g><path style="opacity:1" fill="#eb511c" d="M 3411.5,787.5 C 3453.17,787.333 3494.83,787.5 3536.5,788C 3537,788.5 3537.5,789 3538,789.5C 3538.5,942.677 3538.66,1095.68 3538.5,1248.5C 3539.38,1249.25 3540.38,1249.75 3541.5,1250C 3553.17,1250.17 3564.83,1250.33 3576.5,1250.5C 3631.06,1249.47 3686.39,1249.47 3742.5,1250.5C 3742.5,1289.5 3742.5,1328.5 3742.5,1367.5C 3631.91,1367.52 3521.41,1367.52 3411,1367.5C 3410.73,1365.9 3410.23,1364.4 3409.5,1363C 3409.62,1359.21 3409.62,1355.38 3409.5,1351.5C 3411.34,1347.68 3411.34,1343.68 3409.5,1339.5C 3409.5,1307.5 3409.5,1275.5 3409.5,1243.5C 3410.04,1242.25 3410.71,1241.09 3411.5,1240C 3410.83,1091 3410.17,942 3409.5,793C 3410.24,791.185 3410.91,789.352 3411.5,787.5 Z"/></g>
<g><path style="opacity:0.263" fill="#eb591b" d="M 353.5,902.5 C 391.21,902.179 428.876,902.512 466.5,903.5C 466.265,904.097 465.765,904.43 465,904.5C 427.694,903.842 390.527,903.176 353.5,902.5 Z"/></g>
<g><path style="opacity:0.34" fill="#ec581c" d="M 2920.5,1009.5 C 2919.45,1007.74 2917.78,1007.08 2915.5,1007.5C 2916.88,1006.77 2918.38,1006.1 2920,1005.5C 2921.63,1006.82 2921.8,1008.15 2920.5,1009.5 Z"/></g>
<g><path style="opacity:0.294" fill="#ec591b" d="M 2915.5,1007.5 C 2914.01,1009.28 2912.01,1009.95 2909.5,1009.5C 2911.3,1008.54 2913.3,1007.88 2915.5,1007.5 Z"/></g>
<g><path style="opacity:1" fill="#f2921c" d="M 2915.5,1007.5 C 2917.78,1007.08 2919.45,1007.74 2920.5,1009.5C 2920.67,1010.49 2920.34,1011.16 2919.5,1011.5C 2918.17,1011.5 2917.5,1012.17 2917.5,1013.5C 2916.13,1015.21 2914.46,1016.54 2912.5,1017.5C 2911.51,1017.33 2910.84,1017.66 2910.5,1018.5C 2907.87,1020.82 2905.21,1023.16 2902.5,1025.5C 2901.5,1025.83 2900.83,1026.5 2900.5,1027.5C 2899.67,1029.26 2898.34,1030.6 2896.5,1031.5C 2895.5,1031.83 2894.83,1032.5 2894.5,1033.5C 2893.78,1034.55 2892.78,1035.22 2891.5,1035.5C 2890.17,1035.5 2889.5,1036.17 2889.5,1037.5C 2889.17,1037.5 2888.83,1037.5 2888.5,1037.5C 2887.5,1037.83 2886.83,1038.5 2886.5,1039.5C 2884.82,1040.92 2883.15,1042.25 2881.5,1043.5C 2880.5,1043.83 2879.83,1044.5 2879.5,1045.5C 2878.13,1047.21 2876.46,1048.54 2874.5,1049.5C 2873.5,1049.83 2872.83,1050.5 2872.5,1051.5C 2869.83,1054.17 2867.17,1056.83 2864.5,1059.5C 2862.97,1059.43 2861.97,1060.09 2861.5,1061.5C 2856.12,1066.54 2850.46,1071.21 2844.5,1075.5C 2843.5,1075.83 2842.83,1076.5 2842.5,1077.5C 2841.76,1079.23 2840.43,1080.23 2838.5,1080.5C 2837.5,1080.83 2836.83,1081.5 2836.5,1082.5C 2826.18,1092.84 2815.18,1102.51 2803.5,1111.5C 2801.97,1111.43 2800.97,1112.09 2800.5,1113.5C 2783.78,1129.22 2766.45,1144.22 2748.5,1158.5C 2746.5,1158.5 2745.5,1159.5 2745.5,1161.5C 2707.21,1194.97 2668.54,1227.97 2629.5,1260.5C 2628.51,1260.33 2627.84,1260.66 2627.5,1261.5C 2627.5,1262.17 2627.17,1262.5 2626.5,1262.5C 2625.51,1262.33 2624.84,1262.66 2624.5,1263.5C 2624.5,1264.17 2624.17,1264.5 2623.5,1264.5C 2622.5,1264.83 2621.83,1265.5 2621.5,1266.5C 2620.5,1266.83 2619.83,1267.5 2619.5,1268.5C 2618.5,1268.83 2617.83,1269.5 2617.5,1270.5C 2616.5,1270.83 2615.83,1271.5 2615.5,1272.5C 2614.71,1273.4 2613.71,1274.07 2612.5,1274.5C 2611.5,1274.83 2610.83,1275.5 2610.5,1276.5C 2610.17,1277.5 2609.5,1278.17 2608.5,1278.5C 2606.52,1279.48 2604.85,1280.82 2603.5,1282.5C 2602.17,1284.5 2600.5,1286.17 2598.5,1287.5C 2597.83,1287.83 2597.17,1288.17 2596.5,1288.5C 2595.19,1288.88 2593.86,1289.21 2592.5,1289.5C 2573.71,1277.82 2555.05,1266.15 2536.5,1254.5C 2536.03,1253.09 2535.03,1252.43 2533.5,1252.5C 2532.78,1251.45 2531.78,1250.78 2530.5,1250.5C 2530.03,1249.09 2529.03,1248.43 2527.5,1248.5C 2524.42,1246.09 2521.09,1244.09 2517.5,1242.5C 2517.17,1241.5 2516.5,1240.83 2515.5,1240.5C 2515.17,1240.5 2514.83,1240.5 2514.5,1240.5C 2508.17,1236 2501.51,1232 2494.5,1228.5C 2493.83,1228.5 2493.5,1228.17 2493.5,1227.5C 2492.71,1226.6 2491.71,1225.93 2490.5,1225.5C 2489.51,1225.67 2488.84,1225.34 2488.5,1224.5C 2487.71,1223.6 2486.71,1222.93 2485.5,1222.5C 2484.49,1221.33 2483.15,1220.66 2481.5,1220.5C 2479.15,1219.66 2477.15,1218.33 2475.5,1216.5C 2475.03,1215.09 2474.03,1214.43 2472.5,1214.5C 2472.16,1213.66 2471.49,1213.33 2470.5,1213.5C 2469.51,1213.67 2468.84,1213.34 2468.5,1212.5C 2468.03,1211.09 2467.03,1210.43 2465.5,1210.5C 2464.49,1209.33 2463.15,1208.66 2461.5,1208.5C 2459.61,1207.4 2457.94,1206.06 2456.5,1204.5C 2456.03,1203.09 2455.03,1202.43 2453.5,1202.5C 2453.17,1202.5 2452.83,1202.5 2452.5,1202.5C 2452.03,1201.09 2451.03,1200.43 2449.5,1200.5C 2429.92,1189.37 2410.59,1177.71 2391.5,1165.5C 2390.35,1163.85 2389.02,1162.35 2387.5,1161C 2388.07,1160.01 2388.73,1159.17 2389.5,1158.5C 2391.79,1158.41 2393.79,1157.74 2395.5,1156.5C 2402.45,1153.52 2409.78,1151.52 2417.5,1150.5C 2418.5,1150.41 2419.33,1150.75 2420,1151.5C 2420.46,1150.91 2420.63,1150.24 2420.5,1149.5C 2420.83,1149.5 2421.17,1149.5 2421.5,1149.5C 2423,1150.44 2424.33,1150.11 2425.5,1148.5C 2426.68,1147.34 2427.84,1146.34 2429,1145.5C 2429.38,1146.06 2429.88,1146.39 2430.5,1146.5C 2431.33,1147.44 2431.99,1147.11 2432.5,1145.5C 2434.05,1145.26 2435.55,1145.26 2437,1145.5C 2437.34,1143.38 2438.18,1143.05 2439.5,1144.5C 2440.33,1145.44 2440.99,1145.11 2441.5,1143.5C 2441.83,1143.5 2442.17,1143.5 2442.5,1143.5C 2442.43,1143.94 2442.6,1144.27 2443,1144.5C 2444.52,1143.84 2445.69,1142.84 2446.5,1141.5C 2459.4,1137.46 2473.07,1133.79 2487.5,1130.5C 2489.7,1130.12 2491.7,1129.46 2493.5,1128.5C 2498.82,1127.09 2504.15,1125.43 2509.5,1123.5C 2512.78,1123.58 2515.78,1122.91 2518.5,1121.5C 2522.25,1120.58 2525.92,1119.25 2529.5,1117.5C 2532.78,1117.58 2535.78,1116.91 2538.5,1115.5C 2542.55,1114.48 2546.55,1113.15 2550.5,1111.5C 2553.78,1111.58 2556.78,1110.91 2559.5,1109.5C 2562.55,1109.89 2565.22,1109.22 2567.5,1107.5C 2569.38,1107.77 2570.71,1107.1 2571.5,1105.5C 2574.27,1104.34 2577.27,1103.68 2580.5,1103.5C 2581.82,1103.33 2582.99,1103.66 2584,1104.5C 2584.72,1103.96 2585.22,1103.29 2585.5,1102.5C 2587.99,1101.34 2590.49,1100 2593,1098.5C 2593.38,1099.06 2593.88,1099.39 2594.5,1099.5C 2594.43,1099.94 2594.6,1100.27 2595,1100.5C 2595.99,1099.93 2596.83,1099.27 2597.5,1098.5C 2598.4,1097.4 2599.23,1097.4 2600,1098.5C 2600.95,1096.63 2602.12,1096.29 2603.5,1097.5C 2603.43,1097.94 2603.6,1098.27 2604,1098.5C 2604.99,1097.93 2605.83,1097.27 2606.5,1096.5C 2607.17,1096.17 2607.83,1095.83 2608.5,1095.5C 2609.79,1095.74 2610.79,1095.4 2611.5,1094.5C 2612.46,1094.05 2613.29,1093.38 2614,1092.5C 2616.33,1093.17 2618.83,1093.17 2621.5,1092.5C 2622.49,1092.67 2623.16,1092.34 2623.5,1091.5C 2625.58,1091.03 2627.58,1090.36 2629.5,1089.5C 2631.38,1089.77 2632.71,1089.1 2633.5,1087.5C 2653.33,1082.67 2673,1077.34 2692.5,1071.5C 2695.07,1071.28 2697.4,1070.61 2699.5,1069.5C 2703.65,1067.93 2707.99,1066.59 2712.5,1065.5C 2715.37,1065.2 2718.04,1064.53 2720.5,1063.5C 2732.87,1059.18 2745.2,1055.51 2757.5,1052.5C 2757.94,1053.51 2758.6,1053.51 2759.5,1052.5C 2761.17,1051.11 2762.84,1050.78 2764.5,1051.5C 2765.33,1052.44 2765.99,1052.11 2766.5,1050.5C 2768.73,1050.2 2770.73,1049.53 2772.5,1048.5C 2773.92,1050.03 2774.59,1049.7 2774.5,1047.5C 2775.72,1046.97 2776.89,1046.31 2778,1045.5C 2779.78,1046.48 2781.45,1046.15 2783,1044.5C 2785,1044.5 2787,1044.5 2789,1044.5C 2791.54,1043.48 2794.04,1042.31 2796.5,1041C 2807.32,1039 2817.99,1036.5 2828.5,1033.5C 2830.2,1033.66 2831.87,1033.49 2833.5,1033C 2837.79,1030.73 2842.12,1028.9 2846.5,1027.5C 2857.7,1023.95 2869.04,1020.45 2880.5,1017C 2886.21,1015.99 2891.88,1014.82 2897.5,1013.5C 2901.7,1012.46 2905.7,1011.12 2909.5,1009.5C 2912.01,1009.95 2914.01,1009.28 2915.5,1007.5 Z"/></g>
<g><path style="opacity:0.307" fill="#ec591b" d="M 2909.5,1009.5 C 2905.7,1011.12 2901.7,1012.46 2897.5,1013.5C 2897.61,1012.88 2897.94,1012.38 2898.5,1012C 2902.07,1010.69 2905.74,1009.86 2909.5,1009.5 Z"/></g>
<g><path style="opacity:0.34" fill="#ec591b" d="M 2919.5,1011.5 C 2919.17,1012.5 2918.5,1013.17 2917.5,1013.5C 2917.5,1012.17 2918.17,1011.5 2919.5,1011.5 Z"/></g>
<g><path style="opacity:0.38" fill="#ec571c" d="M 2910.5,1018.5 C 2910.84,1017.66 2911.51,1017.33 2912.5,1017.5C 2912.59,1019.7 2911.92,1020.03 2910.5,1018.5 Z"/></g>
<g><path style="opacity:0.38" fill="#ec571c" d="M 2902.5,1025.5 C 2902.5,1026.83 2901.83,1027.5 2900.5,1027.5C 2900.83,1026.5 2901.5,1025.83 2902.5,1025.5 Z"/></g>
<g><path style="opacity:0.438" fill="#ec581c" d="M 2846.5,1027.5 C 2842.12,1028.9 2837.79,1030.73 2833.5,1033C 2831.87,1033.49 2830.2,1033.66 2828.5,1033.5C 2834.04,1030.41 2840.04,1028.41 2846.5,1027.5 Z"/></g>
<g><path style="opacity:0.38" fill="#ec571c" d="M 2896.5,1031.5 C 2896.5,1032.83 2895.83,1033.5 2894.5,1033.5C 2894.83,1032.5 2895.5,1031.83 2896.5,1031.5 Z"/></g>
<g><path style="opacity:0.421" fill="#ec591b" d="M 2891.5,1035.5 C 2891.17,1036.5 2890.5,1037.17 2889.5,1037.5C 2889.5,1036.17 2890.17,1035.5 2891.5,1035.5 Z"/></g>
<g><path style="opacity:0.259" fill="#ec571c" d="M 2888.5,1037.5 C 2888.5,1038.83 2887.83,1039.5 2886.5,1039.5C 2886.83,1038.5 2887.5,1037.83 2888.5,1037.5 Z"/></g>
<g><path style="opacity:0.259" fill="#ec571c" d="M 2881.5,1043.5 C 2881.5,1044.83 2880.83,1045.5 2879.5,1045.5C 2879.83,1044.5 2880.5,1043.83 2881.5,1043.5 Z"/></g>
<g><path style="opacity:0.34" fill="#ec591b" d="M 2772.5,1048.5 C 2772.84,1047.66 2773.51,1047.33 2774.5,1047.5C 2774.59,1049.7 2773.92,1050.03 2772.5,1048.5 Z"/></g>
<g><path style="opacity:0.38" fill="#ec591b" d="M 2766.5,1050.5 C 2765.99,1052.11 2765.33,1052.44 2764.5,1051.5C 2765.01,1049.89 2765.67,1049.56 2766.5,1050.5 Z"/></g>
<g><path style="opacity:0.259" fill="#ec571c" d="M 2874.5,1049.5 C 2874.5,1050.83 2873.83,1051.5 2872.5,1051.5C 2872.83,1050.5 2873.5,1049.83 2874.5,1049.5 Z"/></g>
<g><path style="opacity:0.34" fill="#ec591b" d="M 2759.5,1052.5 C 2758.6,1053.51 2757.94,1053.51 2757.5,1052.5C 2758.17,1051.17 2758.83,1051.17 2759.5,1052.5 Z"/></g>
<g><path style="opacity:0.32" fill="#ec591b" d="M 2864.5,1059.5 C 2864.03,1060.91 2863.03,1061.57 2861.5,1061.5C 2861.97,1060.09 2862.97,1059.43 2864.5,1059.5 Z"/></g>
<g><path style="opacity:0.259" fill="#ec591c" d="M 2720.5,1063.5 C 2718.04,1064.53 2715.37,1065.2 2712.5,1065.5C 2714.78,1063.78 2717.45,1063.11 2720.5,1063.5 Z"/></g>
<g><path style="opacity:0.35" fill="#ec591b" d="M 2699.5,1069.5 C 2697.4,1070.61 2695.07,1071.28 2692.5,1071.5C 2694.44,1069.84 2696.77,1069.17 2699.5,1069.5 Z"/></g>
<g><path style="opacity:0.421" fill="#ec591b" d="M 2844.5,1075.5 C 2844.5,1076.83 2843.83,1077.5 2842.5,1077.5C 2842.83,1076.5 2843.5,1075.83 2844.5,1075.5 Z"/></g>
<g><path style="opacity:0.34" fill="#ec591b" d="M 2838.5,1080.5 C 2838.5,1081.83 2837.83,1082.5 2836.5,1082.5C 2836.83,1081.5 2837.5,1080.83 2838.5,1080.5 Z"/></g>
<g><path style="opacity:0.38" fill="#ec581c" d="M 2633.5,1087.5 C 2632.71,1089.1 2631.38,1089.77 2629.5,1089.5C 2630.51,1088.33 2631.85,1087.66 2633.5,1087.5 Z"/></g>
<g><path style="opacity:0.38" fill="#ec571c" d="M 2623.5,1091.5 C 2623.16,1092.34 2622.49,1092.67 2621.5,1092.5C 2622.01,1090.89 2622.67,1090.56 2623.5,1091.5 Z"/></g>
<g><path style="opacity:0.38" fill="#ec591b" d="M 2611.5,1094.5 C 2610.79,1095.4 2609.79,1095.74 2608.5,1095.5C 2609.17,1094.73 2610.01,1094.07 2611,1093.5C 2611.4,1093.73 2611.57,1094.06 2611.5,1094.5 Z"/></g>
<g><path style="opacity:0.405" fill="#ec591b" d="M 2606.5,1096.5 C 2605.83,1097.27 2604.99,1097.93 2604,1098.5C 2603.6,1098.27 2603.43,1097.94 2603.5,1097.5C 2604.17,1096.73 2605.01,1096.07 2606,1095.5C 2606.4,1095.73 2606.57,1096.06 2606.5,1096.5 Z"/></g>
<g><path style="opacity:0.831" fill="#ec561c" d="M 2597.5,1098.5 C 2596.83,1099.27 2595.99,1099.93 2595,1100.5C 2594.6,1100.27 2594.43,1099.94 2594.5,1099.5C 2595.17,1098.73 2596.01,1098.07 2597,1097.5C 2597.4,1097.73 2597.57,1098.06 2597.5,1098.5 Z"/></g>
<g><path style="opacity:0.299" fill="#ec591b" d="M 2580.5,1103.5 C 2581.92,1102.55 2583.59,1102.22 2585.5,1102.5C 2585.22,1103.29 2584.72,1103.96 2584,1104.5C 2582.99,1103.66 2581.82,1103.33 2580.5,1103.5 Z"/></g>
<g><path style="opacity:0.307" fill="#ec591b" d="M 2571.5,1105.5 C 2570.71,1107.1 2569.38,1107.77 2567.5,1107.5C 2568.51,1106.33 2569.85,1105.66 2571.5,1105.5 Z"/></g>
<g><path style="opacity:0.286" fill="#ec591b" d="M 2567.5,1107.5 C 2565.22,1109.22 2562.55,1109.89 2559.5,1109.5C 2561.96,1108.47 2564.63,1107.8 2567.5,1107.5 Z"/></g>
<g><path style="opacity:0.283" fill="#ec591b" d="M 2559.5,1109.5 C 2556.78,1110.91 2553.78,1111.58 2550.5,1111.5C 2553.22,1110.09 2556.22,1109.42 2559.5,1109.5 Z"/></g>
<g><path style="opacity:0.32" fill="#ec591b" d="M 2803.5,1111.5 C 2803.03,1112.91 2802.03,1113.57 2800.5,1113.5C 2800.97,1112.09 2801.97,1111.43 2803.5,1111.5 Z"/></g>
<g><path style="opacity:0.38" fill="#ec581c" d="M 2538.5,1115.5 C 2535.78,1116.91 2532.78,1117.58 2529.5,1117.5C 2532.22,1116.09 2535.22,1115.42 2538.5,1115.5 Z"/></g>
<g><path style="opacity:0.999" fill="#eb511c" d="M 2940.5,1362.5 C 2940.5,1364.17 2940.5,1365.83 2940.5,1367.5C 2896.68,1366.2 2853.01,1366.2 2809.5,1367.5C 2805.74,1369.39 2802.91,1368.39 2801,1364.5C 2781.22,1311.38 2761.06,1258.05 2740.5,1204.5C 2742.23,1201.26 2744.57,1198.42 2747.5,1196C 2762.01,1186.17 2775.34,1174.83 2787.5,1162C 2804.45,1149.71 2820.12,1136.04 2834.5,1121C 2838.03,1118.62 2840.53,1119.45 2842,1123.5C 2874.27,1203.1 2907.11,1282.76 2940.5,1362.5 Z"/></g>
<g><path style="opacity:0.441" fill="#ec581c" d="M 2518.5,1121.5 C 2515.78,1122.91 2512.78,1123.58 2509.5,1123.5C 2512.22,1122.09 2515.22,1121.42 2518.5,1121.5 Z"/></g>
<g><path style="opacity:0.432" fill="#ec591b" d="M 2493.5,1128.5 C 2491.7,1129.46 2489.7,1130.12 2487.5,1130.5C 2488.99,1128.72 2490.99,1128.05 2493.5,1128.5 Z"/></g>
<g><path style="opacity:0.34" fill="#ec591b" d="M 2446.5,1141.5 C 2445.69,1142.84 2444.52,1143.84 2443,1144.5C 2442.6,1144.27 2442.43,1143.94 2442.5,1143.5C 2443.51,1142.33 2444.85,1141.66 2446.5,1141.5 Z"/></g>
<g><path style="opacity:0.34" fill="#ec591b" d="M 2441.5,1143.5 C 2440.99,1145.11 2440.33,1145.44 2439.5,1144.5C 2439.84,1143.66 2440.51,1143.33 2441.5,1143.5 Z"/></g>
<g><path style="opacity:0.34" fill="#ec591b" d="M 2432.5,1145.5 C 2431.99,1147.11 2431.33,1147.44 2430.5,1146.5C 2430.84,1145.66 2431.51,1145.33 2432.5,1145.5 Z"/></g>
<g><path style="opacity:0.34" fill="#ec591b" d="M 2425.5,1148.5 C 2424.33,1150.11 2423,1150.44 2421.5,1149.5C 2422.53,1148.75 2423.7,1148.08 2425,1147.5C 2425.4,1147.73 2425.57,1148.06 2425.5,1148.5 Z"/></g>
<g><path style="opacity:0.32" fill="#ec591b" d="M 2417.5,1150.5 C 2418.21,1149.6 2419.21,1149.26 2420.5,1149.5C 2420.63,1150.24 2420.46,1150.91 2420,1151.5C 2419.33,1150.75 2418.5,1150.41 2417.5,1150.5 Z"/></g>
<g><path style="opacity:0.259" fill="#ec591c" d="M 2395.5,1156.5 C 2393.79,1157.74 2391.79,1158.41 2389.5,1158.5C 2391.1,1156.93 2393.1,1156.26 2395.5,1156.5 Z"/></g>
<g><path style="opacity:0.405" fill="#ec591b" d="M 2748.5,1158.5 C 2747.83,1159.83 2746.83,1160.83 2745.5,1161.5C 2745.5,1159.5 2746.5,1158.5 2748.5,1158.5 Z"/></g>
<g><path style="opacity:0.259" fill="#ec581c" d="M 2449.5,1200.5 C 2451.03,1200.43 2452.03,1201.09 2452.5,1202.5C 2450.97,1202.57 2449.97,1201.91 2449.5,1200.5 Z"/></g>
<g><path style="opacity:0.441" fill="#ec591b" d="M 2453.5,1202.5 C 2455.03,1202.43 2456.03,1203.09 2456.5,1204.5C 2454.97,1204.57 2453.97,1203.91 2453.5,1202.5 Z"/></g>
<g><path style="opacity:0.998" fill="#eb511c" d="M 2403.5,1205.5 C 2439.35,1227.26 2475.02,1249.26 2510.5,1271.5C 2498.81,1303.41 2486.81,1335.24 2474.5,1367C 2430.15,1367.4 2385.82,1367.73 2341.5,1368C 2339.22,1366.15 2339.22,1364.48 2341.5,1363C 2361.64,1310.51 2382.31,1258.01 2403.5,1205.5 Z"/></g>
<g><path style="opacity:0.453" fill="#ec591b" d="M 2461.5,1208.5 C 2463.15,1208.66 2464.49,1209.33 2465.5,1210.5C 2463.62,1210.77 2462.29,1210.1 2461.5,1208.5 Z"/></g>
<g><path style="opacity:0.441" fill="#ec591b" d="M 2465.5,1210.5 C 2467.03,1210.43 2468.03,1211.09 2468.5,1212.5C 2466.97,1212.57 2465.97,1211.91 2465.5,1210.5 Z"/></g>
<g><path style="opacity:0.421" fill="#ec591b" d="M 2470.5,1213.5 C 2471.49,1213.33 2472.16,1213.66 2472.5,1214.5C 2471.08,1216.03 2470.41,1215.7 2470.5,1213.5 Z"/></g>
<g><path style="opacity:0.441" fill="#ec591b" d="M 2472.5,1214.5 C 2474.03,1214.43 2475.03,1215.09 2475.5,1216.5C 2473.97,1216.57 2472.97,1215.91 2472.5,1214.5 Z"/></g>
<g><path style="opacity:0.453" fill="#ec591b" d="M 2481.5,1220.5 C 2483.15,1220.66 2484.49,1221.33 2485.5,1222.5C 2483.62,1222.77 2482.29,1222.1 2481.5,1220.5 Z"/></g>
<g><path style="opacity:0.441" fill="#ec591b" d="M 2485.5,1222.5 C 2486.71,1222.93 2487.71,1223.6 2488.5,1224.5C 2486.82,1224.71 2485.82,1224.05 2485.5,1222.5 Z"/></g>
<g><path style="opacity:0.441" fill="#ec591b" d="M 2490.5,1225.5 C 2491.71,1225.93 2492.71,1226.6 2493.5,1227.5C 2491.82,1227.71 2490.82,1227.05 2490.5,1225.5 Z"/></g>
<g><path style="opacity:0.345" fill="#ec591b" d="M 2494.5,1228.5 C 2501.51,1232 2508.17,1236 2514.5,1240.5C 2507.16,1237.5 2500.5,1233.5 2494.5,1228.5 Z"/></g>
<g><path style="opacity:0.34" fill="#ec591b" d="M 2515.5,1240.5 C 2516.5,1240.83 2517.17,1241.5 2517.5,1242.5C 2516.17,1242.5 2515.5,1241.83 2515.5,1240.5 Z"/></g>
<g><path style="opacity:0.32" fill="#ec591b" d="M 2527.5,1248.5 C 2529.03,1248.43 2530.03,1249.09 2530.5,1250.5C 2528.97,1250.57 2527.97,1249.91 2527.5,1248.5 Z"/></g>
<g><path style="opacity:0.32" fill="#ec591b" d="M 2533.5,1252.5 C 2535.03,1252.43 2536.03,1253.09 2536.5,1254.5C 2534.97,1254.57 2533.97,1253.91 2533.5,1252.5 Z"/></g>
<g><path style="opacity:0.47" fill="#ec591b" d="M 3335.5,1258.5 C 3335.5,1294.83 3335.5,1331.17 3335.5,1367.5C 3229.83,1367.5 3124.17,1367.5 3018.5,1367.5C 3123.67,1366.5 3229,1366.17 3334.5,1366.5C 3334.17,1330.33 3334.5,1294.33 3335.5,1258.5 Z"/></g>
<g><path style="opacity:0.421" fill="#ec591b" d="M 2627.5,1261.5 C 2627.84,1260.66 2628.51,1260.33 2629.5,1260.5C 2629.59,1262.7 2628.92,1263.03 2627.5,1261.5 Z"/></g>
<g><path style="opacity:0.421" fill="#ec591b" d="M 2624.5,1263.5 C 2624.84,1262.66 2625.51,1262.33 2626.5,1262.5C 2626.59,1264.7 2625.92,1265.03 2624.5,1263.5 Z"/></g>
<g><path style="opacity:0.421" fill="#ec591b" d="M 2623.5,1264.5 C 2623.5,1265.83 2622.83,1266.5 2621.5,1266.5C 2621.83,1265.5 2622.5,1264.83 2623.5,1264.5 Z"/></g>
<g><path style="opacity:0.421" fill="#ec591b" d="M 2621.5,1266.5 C 2621.5,1267.83 2620.83,1268.5 2619.5,1268.5C 2619.83,1267.5 2620.5,1266.83 2621.5,1266.5 Z"/></g>
<g><path style="opacity:0.421" fill="#ec591b" d="M 2619.5,1268.5 C 2619.5,1269.83 2618.83,1270.5 2617.5,1270.5C 2617.83,1269.5 2618.5,1268.83 2619.5,1268.5 Z"/></g>
<g><path style="opacity:0.421" fill="#ec591b" d="M 2617.5,1270.5 C 2617.5,1271.83 2616.83,1272.5 2615.5,1272.5C 2615.83,1271.5 2616.5,1270.83 2617.5,1270.5 Z"/></g>
<g><path style="opacity:0.421" fill="#ec591b" d="M 2612.5,1274.5 C 2612.5,1275.83 2611.83,1276.5 2610.5,1276.5C 2610.83,1275.5 2611.5,1274.83 2612.5,1274.5 Z"/></g>
<g><path style="opacity:0.35" fill="#ec591b" d="M 2608.5,1278.5 C 2607.74,1280.93 2606.07,1282.26 2603.5,1282.5C 2604.85,1280.82 2606.52,1279.48 2608.5,1278.5 Z"/></g>
<g><path style="opacity:0.34" fill="#ec591b" d="M 2598.5,1287.5 C 2598.29,1289.42 2597.62,1289.76 2596.5,1288.5C 2597.17,1288.17 2597.83,1287.83 2598.5,1287.5 Z"/></g>
<g><path style="opacity:0.496" fill="#eb591b" d="M 2304.5,1360.5 C 2305.47,1362.95 2305.81,1365.61 2305.5,1368.5C 2266.85,1367.55 2228.18,1367.22 2189.5,1367.5C 2227.68,1366.2 2266.01,1366.2 2304.5,1367.5C 2304.5,1365.17 2304.5,1362.83 2304.5,1360.5 Z"/></g>
<g><path style="opacity:0.497" fill="#eb591b" d="M 2940.5,1362.5 C 2941.46,1364.26 2941.79,1366.26 2941.5,1368.5C 2897.51,1367.55 2853.51,1367.22 2809.5,1367.5C 2853.01,1366.2 2896.68,1366.2 2940.5,1367.5C 2940.5,1365.83 2940.5,1364.17 2940.5,1362.5 Z"/></g>
</svg>
